<svg width="27" height="20" viewBox="0 0 27 20" fill="none" xmlns="http://www.w3.org/2000/svg">
  <path d="M6.23382 15.5548C7.15417 15.5548 7.90026 14.8087 7.90026 13.8884C7.90026 12.968 7.15417 12.2219 6.23382 12.2219C5.31347 12.2219 4.56738 12.968 4.56738 13.8884C4.56738 14.8087 5.31347 15.5548 6.23382 15.5548Z" fill="#212529" />
  <path d="M21.2331 0H5.67833C2.61159 0.00272963 0.126265 2.48942 0.123535 5.5548V14.4438C0.126265 17.5106 2.61159 19.9959 5.67833 20H21.2331C24.2999 19.9959 26.7852 17.5106 26.7879 14.4452V5.55616C26.7852 2.48942 24.2999 0.00409445 21.2331 0.00136482V0ZM5.67833 2.22192H21.2331C23.0743 2.22192 24.566 3.71503 24.566 5.5548H2.34409C2.34409 3.71366 3.8372 2.22192 5.67697 2.22192H5.67833ZM21.2331 17.7767H5.67833C3.8372 17.7767 2.34545 16.2836 2.34545 14.4438V7.77672H24.5674V14.4438C24.5674 16.285 23.0743 17.7767 21.2345 17.7767H21.2331Z" fill="#212529" />
</svg>