<svg width="20" height="20" viewBox="0 0 20 20" fill="none" xmlns="http://www.w3.org/2000/svg">
  <g clip-path="url(#clip0_1_3630)">
    <path d="M19.1375 3.39756C18.6639 2.8286 17.962 2.5 17.2217 2.5C17.2206 2.5 17.2196 2.5 17.2186 2.5H3.745L3.70951 2.20791C3.56143 0.950303 2.4945 0.0010142 1.22776 0H1.04217C0.581721 0 0.208496 0.373225 0.208496 0.833671C0.208496 1.29412 0.581721 1.66734 1.04217 1.66734H1.22675C1.64967 1.66734 2.00464 1.98377 2.05434 2.40365L3.20139 12.1531C3.44784 14.2515 5.22675 15.8337 7.33932 15.8337H16.0422C16.5026 15.8337 16.8758 15.4604 16.8758 15C16.8758 14.5395 16.5026 14.1663 16.0422 14.1663H7.33932C6.28253 14.1633 5.34135 13.4959 4.98942 12.5H14.9225C16.9387 12.5 18.6659 11.0568 19.0229 9.07301L19.677 5.44421C19.7034 5.29715 19.7176 5.14807 19.7176 4.99898C19.7176 4.41379 19.5117 3.84685 19.1355 3.39756H19.1375ZM18.0432 5.14807L17.388 8.77687C17.174 9.96754 16.1375 10.8337 14.9275 10.8337C14.9265 10.8337 14.9255 10.8337 14.9235 10.8337H4.72472L3.94074 4.16734H17.2176C17.2196 4.16734 17.2206 4.16734 17.2227 4.16734C17.6831 4.16734 18.0563 4.54056 18.0563 5.00101C18.0563 5.0507 18.0513 5.1004 18.0432 5.14908V5.14807Z" fill="#212529" />
    <path d="M6.04426 19.999C6.96454 19.999 7.71058 19.2529 7.71058 18.3326C7.71058 17.4124 6.96454 16.6663 6.04426 16.6663C5.12397 16.6663 4.37793 17.4124 4.37793 18.3326C4.37793 19.2529 5.12397 19.999 6.04426 19.999Z" fill="#212529" />
    <path d="M14.3768 19.999C15.2971 19.999 16.0431 19.2529 16.0431 18.3326C16.0431 17.4124 15.2971 16.6663 14.3768 16.6663C13.4565 16.6663 12.7104 17.4124 12.7104 18.3326C12.7104 19.2529 13.4565 19.999 14.3768 19.999Z" fill="#212529" />
  </g>
  <defs>
    <clipPath id="clip0_1_3630">
      <rect width="19.5091" height="20" fill="white" transform="translate(0.210449)" />
    </clipPath>
  </defs>
</svg>