<svg width="23" height="20" viewBox="0 0 23 20" fill="none" xmlns="http://www.w3.org/2000/svg">
  <path fill-rule="evenodd" clip-rule="evenodd" d="M16.718 1.91243C17.9914 1.91243 19.4377 2.81218 20.1309 3.83086C20.7723 4.77386 20.9381 5.53307 20.9381 6.71152C20.9381 8.71644 19.2311 11.3677 17.971 12.8092C17.7583 13.053 17.577 13.2933 17.3499 13.5203L16.4405 14.521C15.8447 15.1108 14.8945 16.067 14.2674 16.5692C14.1894 16.6316 14.1593 16.6737 14.0861 16.7421C13.3437 17.4365 12.5797 18.0864 11.4312 18.0864C10.481 18.0864 9.92725 17.6407 9.41911 17.2106C9.33742 17.141 9.32781 17.1482 9.24372 17.0749C9.17525 17.0136 9.15363 16.9824 9.08275 16.9247L8.53137 16.455C8.38601 16.3145 8.34036 16.2652 8.1818 16.1391C7.94274 15.9481 7.77697 15.7259 7.51509 15.5169C7.02737 15.1276 6.09759 14.0525 5.60026 13.5215C4.89631 12.7683 3.88484 11.4517 3.35868 10.564C2.53581 9.17533 2.01206 8.13983 2.01206 6.26825C2.01206 5.16308 2.55864 4.00745 3.28901 3.28068C4.85907 1.71903 6.89643 1.44754 8.71516 2.80858C9.64975 3.50892 10.3645 4.67296 10.493 5.87423C10.5459 6.37516 10.4138 6.73194 10.6228 7.12235C11.1117 8.03652 12.4535 7.67133 12.4535 6.62382C12.4535 5.4646 12.6121 4.67656 13.3665 3.67109L13.9011 3.09448C14.3095 2.77975 14.2698 2.71488 14.9269 2.38693C15.393 2.15509 16.0477 1.91363 16.7192 1.91363L16.718 1.91243ZM0.10083 6.04481V6.93375C0.10083 8.54346 1.00539 10.409 1.63005 11.4481C1.82586 11.7749 2.01806 12.0536 2.22468 12.3635L3.68903 14.2759C4.49749 15.1829 4.83985 15.5625 5.7324 16.4538C6.3979 17.1193 8.25627 18.8336 8.95061 19.278C10.6168 20.346 12.8668 20.2186 14.414 18.9813L17.1961 16.4755C18.9764 14.6952 20.7087 12.7767 21.8439 10.5039L22.3004 9.45042C22.8241 7.97886 22.8505 7.67133 22.8505 6.13491C22.8505 4.58406 22.0685 2.97556 20.9958 1.90282C18.4971 -0.595828 14.9546 -0.667905 12.3538 1.90282C12.1592 2.09502 11.5814 2.80858 11.5213 3.06926H11.4324C11.2955 2.48063 10.0906 1.37666 9.51281 0.989852C7.76615 -0.178987 5.63269 -0.320737 3.74549 0.625867C2.36763 1.3166 1.43184 2.24398 0.724291 3.64707C0.444394 4.20086 0.102031 5.22074 0.102031 6.04601L0.10083 6.04481Z" fill="#212529" />
</svg>