<svg width="25" height="20" viewBox="0 0 25 20" fill="none" xmlns="http://www.w3.org/2000/svg">
  <g clip-path="url(#clip0_1_3622)">
    <path fill-rule="evenodd" clip-rule="evenodd" d="M2.24187 6.62761L2.42583 6.99553C2.45211 7.04809 2.48648 7.09661 2.51478 7.14917C2.75635 7.59896 3.02421 8.04167 3.29711 8.47226C3.57305 8.9079 3.86213 9.34455 4.17041 9.75694C4.30889 9.94191 4.41704 10.1117 4.61414 10.2421C4.79507 10.3624 5.02552 10.4422 5.24385 10.4422C5.85536 10.4422 6.0757 10.2087 6.41835 9.74582C6.49618 9.6407 6.56694 9.53053 6.64274 9.42339C6.71754 9.31827 6.78728 9.21011 6.86309 9.106C7.15722 8.70271 7.42912 8.2509 7.68787 7.82334L8.07601 7.12996C8.33577 6.66602 8.54096 6.19601 8.71077 5.69063C9.03927 4.71221 8.69561 3.49424 8.04265 2.72303C7.72932 2.35208 7.37757 2.04784 6.94496 1.82244C6.37186 1.52426 5.84525 1.42015 5.19735 1.42015C4.90221 1.42015 4.61515 1.47372 4.33112 1.54852C3.43154 1.78403 2.56229 2.47943 2.14989 3.31432C1.5303 4.56666 1.6526 5.39852 2.24288 6.62963L2.24187 6.62761ZM4.31697 5.02757V4.86585C4.31697 4.39584 4.74756 3.96222 5.33582 3.96222C5.80078 3.96222 6.2627 4.40494 6.2627 4.86585C6.2627 5.1802 6.20306 5.45108 5.96755 5.6593C5.2489 6.29406 4.31697 5.68962 4.31697 5.02757ZM19.0155 18.2423C18.3444 18.2423 17.7136 17.6935 17.7136 17.0213C17.7136 16.6443 17.7359 16.7555 17.7541 16.5331H20.1951C20.3962 16.9526 20.2001 17.5924 19.8989 17.8643C19.6857 18.0573 19.3006 18.2413 19.0145 18.2413L19.0155 18.2423ZM8.1508 16.9809L8.23268 16.5331H10.6737C10.7161 17.0476 10.8121 17.7369 9.97523 18.1139C9.04634 18.5324 8.1508 17.7955 8.1508 16.9809ZM21.2938 14.743H18.5677V11.3246H22.8807V13.0338C22.8807 13.5301 22.6684 13.9395 22.4238 14.2043C22.1903 14.458 21.7608 14.743 21.2938 14.743ZM5.54707 13.0338V11.8543C5.98575 11.8128 6.4133 11.6632 6.78122 11.4075C7.29368 11.0517 7.59792 10.5443 7.9628 10.0177C8.42068 9.35668 8.70875 8.87858 9.10193 8.21451C9.15146 8.13062 9.1929 8.06188 9.23535 7.97799L9.61338 7.24418C9.87921 6.67006 10.2694 5.76644 10.2694 4.95884C10.2694 4.19571 10.0298 3.26884 9.68009 2.61791H14.0911C15.6689 2.61791 16.8171 3.76715 16.8171 5.34394V14.743H7.13296C6.3193 14.743 5.54606 13.9557 5.54606 13.0338H5.54707ZM3.79744 11.4065V13.1976C3.79744 13.5908 3.93389 14.1164 4.06833 14.3923C4.55754 15.4 5.31157 16.149 6.44261 16.4128C6.38096 17.1507 6.33547 17.5277 6.69935 18.312C7.10972 19.1955 8.14171 19.9374 9.16966 19.995C9.7751 20.0293 10.2663 19.9454 10.7283 19.7231C11.0295 19.5785 11.1649 19.4957 11.3964 19.2935C11.6268 19.0924 11.7441 18.9984 11.9432 18.7012C12.2606 18.2261 12.5042 17.5752 12.5042 16.9425C12.5042 16.7696 12.4637 16.7514 12.4637 16.5351H15.963C15.963 17.086 15.8538 17.1618 16.1106 17.934C16.6443 19.5422 18.4576 20.469 20.2193 19.7322C20.5286 19.6028 20.8622 19.3784 21.1017 19.15C21.5111 18.7598 22.0266 17.9219 22.0266 17.1446C22.0266 16.7898 22.0549 16.709 21.9862 16.4118C23.4477 16.0712 24.6313 14.641 24.6313 13.1976V8.51774C24.6313 7.74248 24.3463 7.02383 24.0602 6.52552C23.4275 5.4248 22.3278 4.62326 21.0168 4.4009C20.3194 4.28264 19.3137 4.3261 18.4869 4.3261L18.2605 3.61654C17.6227 2.02257 16.0712 0.867263 14.2548 0.867263H8.10532C7.90923 0.735863 7.69091 0.611539 7.44428 0.487215C6.85096 0.190051 6.17577 0.0273175 5.4935 0.0010376H5.08718C4.40491 0.0283282 3.72871 0.190051 3.1364 0.487215C2.82509 0.643884 2.30656 0.942059 2.04174 1.19879C1.92955 1.30695 1.82544 1.38781 1.71729 1.5C1.65664 1.56368 1.64249 1.60007 1.57881 1.66273C1.37363 1.86792 1.22201 2.10949 1.06029 2.34904C0.622629 3.00099 0.310303 4.07846 0.310303 4.95783C0.310303 6.41333 1.61419 8.51269 2.30252 9.54468C2.54005 9.90148 2.95952 10.5271 3.21524 10.8556C3.39111 11.081 3.57103 11.2539 3.79845 11.4065H3.79744ZM18.5677 6.11717H20.4801C20.8268 6.11717 21.2008 6.25161 21.4444 6.37391C22.2914 6.79843 22.8807 7.66364 22.8807 8.64004V9.53558H18.5677V6.11717ZM5.31258 6.92781C5.82807 6.92781 6.3476 6.69129 6.6852 6.3547C7.25325 5.78969 7.42609 4.94469 7.12286 4.19066C7.03391 3.97031 6.89948 3.75199 6.74281 3.59734C6.26977 3.13037 5.89073 2.96662 5.19634 2.96662C4.78294 2.96662 4.41906 3.12935 4.11684 3.34667C3.99656 3.43359 3.94805 3.48615 3.84596 3.58622C3.68424 3.74592 3.55081 3.95616 3.46086 4.17448C3.37393 4.38776 3.27386 4.77488 3.29812 5.00129C3.3335 5.32575 3.38 5.52082 3.49017 5.78362C3.65897 6.18793 4.08147 6.58718 4.48678 6.75598C4.73038 6.85705 4.97599 6.92781 5.31157 6.92781H5.31258Z" fill="#212529" />
  </g>
  <defs>
    <clipPath id="clip0_1_3622">
      <rect width="24.3221" height="20" fill="white" transform="translate(0.308838)" />
    </clipPath>
  </defs>
</svg>