<svg width="25" height="20" viewBox="0 0 25 20" fill="none" xmlns="http://www.w3.org/2000/svg">
  <g clip-path="url(#clip0_1_3607)">
    <path fill-rule="evenodd" clip-rule="evenodd" d="M10.9447 1.45672C10.9447 2.10353 11.152 2.53473 11.6357 2.89407L12.1195 3.10967C10.2536 3.10967 8.5951 3.39714 7.1439 4.18768C5.20895 5.12196 5.20895 4.25955 4.03416 4.25955C3.41221 4.25955 2.79026 5.4813 3.82685 6.05624C4.10327 6.19997 4.65611 6.41558 5.00164 6.41558C4.03416 8.35601 3.06669 10.3683 2.09922 12.3088C1.8919 12.3088 1.61548 12.2369 1.47727 12.3806C1.06264 12.7399 1.82279 13.7461 2.03011 14.0335L2.79026 14.6084C4.51789 15.6865 7.69673 15.7584 9.21705 14.2491C9.63167 13.8898 10.1845 13.243 10.1845 12.5243C10.1845 12.2369 9.63168 12.3088 9.49347 12.3088C9.42436 12.165 9.21705 11.7337 9.14794 11.5901C8.31868 10.009 7.2821 8.21228 6.66016 6.63118C6.52194 6.34371 6.59105 6.48744 7.1439 6.34371C8.38779 6.05624 9.76989 5.2657 10.9447 5.2657V16.9082C10.1154 16.9082 9.49347 17.6269 9.49347 18.4893H7.76584C7.213 18.4893 6.52194 19.1361 6.52194 19.9985H12.465H18.408C18.408 19.1361 17.717 18.4893 17.1641 18.4893H15.4366C15.4366 17.6269 14.8145 16.9082 13.9853 16.9082V5.2657C15.1601 5.2657 16.5422 6.05624 17.7861 6.34371C18.3389 6.48744 18.408 6.34371 18.2698 6.63118C17.5788 8.21228 16.6113 10.009 15.7821 11.5901C15.713 11.7337 15.5057 12.165 15.4366 12.3088C15.2983 12.3088 14.6763 12.2369 14.6763 12.5243C14.6763 13.243 15.2983 13.8898 15.713 14.2491C17.1641 15.7584 20.4121 15.6865 22.1397 14.6084L22.8998 14.0335C23.1071 13.7461 23.8674 12.7399 23.4528 12.3806C23.3146 12.2369 23.038 12.3088 22.8307 12.3088C21.8633 10.3683 20.8958 8.35601 19.9284 6.41558C20.2739 6.41558 20.8267 6.19997 21.034 6.05624C22.1397 5.4813 21.4487 4.25955 20.8267 4.25955C19.7211 4.25955 19.7211 5.12196 17.7861 4.18768C16.3349 3.39714 14.6763 3.10967 12.8105 3.10967L13.2251 2.89407C13.778 2.53473 13.9853 2.10353 13.9853 1.45672C13.9853 -0.483701 10.9447 -0.483701 10.9447 1.45672ZM19.1681 6.70305L17.7861 9.50589L16.404 12.3088H19.1681H21.8633L20.5503 9.50589L19.1681 6.70305ZM5.76179 6.70305L7.1439 9.50589L8.526 12.3088H5.76179H2.99758L4.37968 9.50589L5.76179 6.70305Z" fill="#1E293B" />
  </g>
  <defs>
    <clipPath id="clip0_1_3607">
      <rect width="23.33" height="19.9971" fill="white" transform="translate(0.800049 0.00140381)" />
    </clipPath>
  </defs>
</svg>